<?xml version="1.0" standalone="no"?>
<!DOCTYPE svg PUBLIC "-//W3C//DTD SVG 20010904//EN"
 "http://www.w3.org/TR/2001/REC-SVG-20010904/DTD/svg10.dtd">
<svg version="1.0" xmlns="http://www.w3.org/2000/svg"
 width="739.000000pt" height="151.000000pt" viewBox="0 0 739.000000 151.000000"
 preserveAspectRatio="xMidYMid meet">

<g transform="translate(0.000000,151.000000) scale(0.100000,-0.100000)"
fill="#000000" stroke="none">
<path d="M504 1319 c-59 -17 -126 -71 -157 -127 -35 -63 -51 -182 -24 -182 28
0 55 35 71 91 28 101 90 149 191 149 102 0 174 -57 196 -155 10 -46 18 -58 46
-75 19 -11 36 -20 39 -20 12 0 1 97 -17 147 -51 138 -203 213 -345 172z"/>
<path d="M593 1042 c-19 -3 -23 -10 -23 -41 l0 -38 52 -6 c32 -4 88 -24 145
-53 l94 -46 34 23 c19 13 35 27 35 30 0 10 -88 65 -150 93 -56 26 -147 44
-187 38z"/>
<path d="M1220 971 c-15 -29 -14 -573 2 -589 17 -17 45 -15 52 4 8 20 8 568 0
588 -8 22 -41 20 -54 -3z"/>
<path d="M1593 972 c-10 -7 -111 -227 -128 -282 -6 -18 -2 -20 35 -20 34 0 42
4 50 25 9 23 14 25 75 25 50 0 65 -3 65 -14 0 -25 30 -46 66 -46 19 0 34 4 34
9 0 18 -121 296 -133 303 -15 10 -49 10 -64 0z m58 -167 c3 -15 -2 -20 -23
-21 -37 -4 -42 8 -23 53 l16 38 14 -25 c7 -14 15 -34 16 -45z"/>
<path d="M1875 966 c-38 -16 -53 -35 -61 -73 -9 -46 31 -86 106 -107 47 -13
60 -21 58 -34 -4 -23 -59 -27 -98 -7 -31 16 -33 16 -56 -6 -13 -12 -24 -26
-24 -30 0 -14 100 -49 142 -49 104 0 163 97 98 158 -11 10 -48 26 -81 36 -47
13 -60 20 -57 34 4 23 33 27 80 11 35 -11 40 -10 53 7 23 30 18 41 -25 58 -48
19 -94 20 -135 2z"/>
<path d="M2465 973 c-29 -7 -62 -41 -70 -70 -14 -58 24 -96 123 -123 32 -8 42
-16 40 -28 -4 -24 -59 -27 -99 -7 -31 16 -32 16 -57 -9 -26 -25 -26 -26 -7
-40 32 -23 102 -39 147 -33 76 10 118 65 97 125 -12 34 -28 45 -102 66 -44 13
-57 21 -57 36 0 24 35 27 87 8 29 -11 35 -10 48 8 23 30 18 41 -25 58 -39 16
-84 19 -125 9z"/>
<path d="M2795 973 c-32 -8 -84 -51 -100 -83 -22 -44 -19 -111 8 -150 39 -58
71 -75 141 -75 54 0 68 4 100 29 118 90 67 268 -80 281 -27 2 -58 1 -69 -2z
m80 -73 c15 -6 32 -24 41 -45 12 -31 12 -39 0 -70 -35 -82 -138 -63 -153 28
-5 31 -1 40 25 67 33 32 46 35 87 20z"/>
<path d="M3715 967 c-52 -24 -71 -66 -54 -117 11 -30 45 -50 117 -70 32 -8 42
-16 40 -28 -4 -24 -59 -27 -98 -7 -31 16 -33 16 -56 -6 -29 -27 -20 -41 42
-65 67 -26 140 -15 176 25 54 60 25 128 -63 151 -56 13 -74 24 -74 41 0 15 47
17 95 4 19 -5 28 -1 38 16 12 19 11 24 -5 41 -26 25 -117 34 -158 15z"/>
<path d="M6573 959 c-80 -40 -111 -131 -71 -209 77 -151 312 -98 312 70 0 122
-128 195 -241 139z m110 -61 c34 -17 46 -39 47 -80 0 -28 -7 -42 -31 -62 -40
-34 -64 -33 -100 3 -46 46 -38 110 16 139 26 15 41 15 68 0z"/>
<path d="M2110 815 l0 -156 123 3 122 3 0 35 0 35 -82 3 c-81 3 -83 3 -83 27
0 24 2 25 75 25 l75 0 0 30 0 30 -75 0 c-73 0 -75 1 -75 25 0 27 12 30 90 26
61 -4 82 6 78 37 l-3 27 -122 3 -123 3 0 -156z"/>
<path d="M3052 818 l3 -153 40 0 40 0 3 48 c3 38 7 47 22 47 10 0 28 -15 40
-35 12 -20 29 -42 37 -50 15 -16 93 -21 93 -7 0 5 -13 28 -30 50 -35 49 -37
58 -11 72 30 15 45 73 31 115 -17 52 -50 65 -170 65 l-101 0 3 -152z m186 53
c5 -31 -21 -51 -65 -51 -32 0 -33 1 -33 41 l0 40 48 -3 c41 -3 47 -6 50 -27z"/>
<path d="M3372 818 l3 -153 120 0 120 0 0 35 0 35 -82 3 c-81 3 -83 3 -83 27
0 24 2 25 75 25 l75 0 0 30 0 30 -75 0 c-73 0 -75 1 -75 25 0 24 2 24 83 27
l82 3 3 33 3 32 -126 0 -126 0 3 -152z"/>
<path d="M4020 814 l0 -157 81 6 c51 4 93 13 113 25 100 58 102 202 4 262 -26
16 -51 20 -115 20 l-83 0 0 -156z m195 94 c45 -41 55 -90 30 -142 -23 -48 -60
-66 -135 -66 l-60 0 0 120 0 120 65 0 c60 0 68 -3 100 -32z"/>
<path d="M4362 818 l3 -153 109 0 c79 0 111 4 114 13 3 9 -20 12 -92 12 l-96
0 0 60 0 60 85 0 c69 0 85 3 85 15 0 12 -16 15 -85 15 l-85 0 0 55 0 55 95 0
c57 0 95 4 95 10 0 6 -45 10 -115 10 l-116 0 3 -152z"/>
<path d="M4660 815 l0 -156 103 3 c83 2 102 6 102 18 0 12 -18 16 -87 18 l-88
3 0 134 c0 113 -2 135 -15 135 -13 0 -15 -24 -15 -155z"/>
<path d="M4970 815 l0 -155 40 0 40 0 0 155 0 155 -40 0 -40 0 0 -155z"/>
<path d="M5110 814 l0 -155 38 3 37 3 5 84 5 84 63 -81 c63 -82 86 -98 122
-87 19 6 20 15 20 156 l0 149 -40 0 -40 0 0 -75 c0 -41 -4 -75 -8 -75 -4 0
-34 34 -65 75 -55 71 -60 75 -98 75 l-39 0 0 -156z"/>
<path d="M5440 935 c0 -35 0 -35 45 -35 l44 0 3 -117 3 -118 35 0 35 0 3 118
3 117 49 0 50 0 0 35 0 35 -135 0 -135 0 0 -35z"/>
<path d="M5742 818 l3 -153 123 -3 122 -3 0 41 0 40 -80 0 c-79 0 -80 0 -80
25 0 24 2 25 70 25 l70 0 0 30 0 30 -71 0 c-70 0 -70 0 -67 26 3 26 5 27 78
28 l75 1 3 33 3 32 -126 0 -126 0 3 -152z"/>
<path d="M6032 818 l3 -153 40 0 40 0 3 48 c4 63 29 64 71 3 21 -31 39 -45 62
-50 70 -14 74 -5 28 58 l-30 43 30 31 c33 32 39 69 21 116 -16 42 -57 56 -170
56 l-101 0 3 -152z m192 59 c16 -26 -26 -59 -68 -55 -28 3 -31 7 -34 41 l-3
38 47 -3 c32 -2 50 -9 58 -21z"/>
<path d="M6350 820 l0 -150 45 0 45 0 0 150 0 150 -45 0 -45 0 0 -150z"/>
<path d="M6860 820 c0 -163 2 -169 55 -156 22 6 25 12 25 51 0 40 3 45 23 45
15 0 30 -13 50 -45 22 -34 36 -46 63 -51 63 -12 70 0 31 54 l-35 47 29 33 c20
23 29 43 29 68 0 80 -40 104 -175 104 l-95 0 0 -150z m188 48 c4 -32 -24 -51
-71 -46 -29 3 -32 6 -35 41 l-3 38 53 -3 c49 -3 53 -5 56 -30z"/>
<path d="M913 839 l-42 -29 0 -78 c-1 -90 -17 -149 -60 -219 -23 -37 -31 -62
-31 -97 0 -25 4 -46 9 -46 17 0 91 90 119 147 45 90 68 219 55 304 l-8 47 -42
-29z"/>
<path d="M535 765 c-29 -28 -30 -40 -10 -79 8 -15 15 -46 15 -67 l0 -39 45 0
45 0 0 38 c0 21 7 47 15 58 55 73 -45 155 -110 89z"/>
<path d="M3558 493 c7 -3 16 -2 19 1 4 3 -2 6 -13 5 -11 0 -14 -3 -6 -6z"/>
<path d="M3948 493 c6 -2 18 -2 25 0 6 3 1 5 -13 5 -14 0 -19 -2 -12 -5z"/>
<path d="M4168 493 c7 -3 16 -2 19 1 4 3 -2 6 -13 5 -11 0 -14 -3 -6 -6z"/>
<path d="M4988 493 c7 -3 16 -2 19 1 4 3 -2 6 -13 5 -11 0 -14 -3 -6 -6z"/>
<path d="M5098 493 c6 -2 18 -2 25 0 6 3 1 5 -13 5 -14 0 -19 -2 -12 -5z"/>
<path d="M6100 496 c0 -2 11 -6 25 -8 13 -3 22 -1 19 3 -5 9 -44 13 -44 5z"/>
<path d="M6488 493 c7 -3 16 -2 19 1 4 3 -2 6 -13 5 -11 0 -14 -3 -6 -6z"/>
<path d="M2583 440 c0 -30 2 -43 4 -27 2 15 2 39 0 55 -2 15 -4 2 -4 -28z"/>
<path d="M2656 477 c3 -10 9 -15 12 -12 3 3 0 11 -7 18 -10 9 -11 8 -5 -6z"/>
<path d="M2745 480 c3 -5 8 -10 11 -10 2 0 4 5 4 10 0 6 -5 10 -11 10 -5 0 -7
-4 -4 -10z"/>
<path d="M2897 480 c6 -8 13 -26 16 -40 l4 -25 2 26 c0 15 -7 33 -16 40 -16
12 -17 12 -6 -1z"/>
<path d="M3003 440 c0 -30 2 -43 4 -27 2 15 2 39 0 55 -2 15 -4 2 -4 -28z"/>
<path d="M3068 480 c6 -8 12 -26 12 -40 0 -14 -6 -32 -12 -40 -11 -12 -10 -12
5 -1 9 7 17 26 17 41 0 15 -8 34 -17 41 -15 11 -16 11 -5 -1z"/>
<path d="M3292 450 c-1 -25 2 -40 6 -34 4 7 16 13 26 15 26 5 44 35 30 49 -8
8 -10 4 -10 -12 1 -16 -5 -24 -21 -26 -17 -3 -22 3 -26 25 -3 19 -4 13 -5 -17z"/>
<path d="M3402 450 c-1 -32 1 -41 8 -30 8 12 13 13 29 3 17 -11 19 -10 15 1
-3 8 -1 17 5 21 6 3 11 14 10 23 0 12 -3 11 -9 -5 -13 -33 -48 -30 -53 5 -3
17 -4 11 -5 -18z"/>
<path d="M3509 464 c-7 -20 -6 -32 6 -50 8 -13 18 -24 20 -24 3 0 -2 11 -10
24 -12 18 -13 30 -6 50 6 14 8 26 6 26 -3 0 -10 -12 -16 -26z"/>
<path d="M3653 440 c0 -30 2 -43 4 -27 2 15 2 39 0 55 -2 15 -4 2 -4 -28z"/>
<path d="M3718 480 c6 -8 12 -26 12 -40 0 -14 -6 -32 -12 -40 -11 -12 -10 -12
5 -1 9 7 17 26 17 41 0 15 -8 34 -17 41 -15 11 -16 11 -5 -1z"/>
<path d="M3782 454 c-1 -29 3 -46 16 -55 15 -12 16 -12 5 1 -6 8 -13 33 -16
55 l-4 40 -1 -41z"/>
<path d="M3863 455 c0 -22 2 -30 4 -17 2 12 2 30 0 40 -3 9 -5 -1 -4 -23z"/>
<path d="M3913 473 c-3 -10 -8 -22 -11 -27 -3 -5 0 -6 5 -3 11 7 25 47 17 47
-3 0 -7 -8 -11 -17z"/>
<path d="M4053 445 c0 -27 2 -38 4 -22 2 15 2 37 0 50 -2 12 -4 0 -4 -28z"/>
<path d="M4207 480 c6 -8 13 -26 16 -40 l4 -25 2 26 c0 15 -7 33 -16 40 -16
12 -17 12 -6 -1z"/>
<path d="M4273 440 c0 -30 2 -45 4 -32 5 24 22 29 42 10 10 -11 11 -10 6 3 -4
10 -2 20 4 24 6 3 11 16 10 28 -1 20 -2 20 -8 -3 -4 -15 -15 -26 -28 -28 -17
-3 -22 3 -26 25 -2 15 -4 3 -4 -27z"/>
<path d="M4672 476 c7 -8 15 -12 17 -11 5 6 -10 25 -20 25 -5 0 -4 -6 3 -14z"/>
<path d="M4962 470 c0 -14 2 -19 5 -12 2 6 2 18 0 25 -3 6 -5 1 -5 -13z"/>
<path d="M5066 475 c-9 -26 -7 -32 5 -12 6 10 9 21 6 23 -2 3 -7 -2 -11 -11z"/>
<path d="M5146 477 c3 -10 9 -15 12 -12 3 3 0 11 -7 18 -10 9 -11 8 -5 -6z"/>
<path d="M5264 468 c1 -26 -32 -38 -45 -16 -7 10 -9 10 -9 -3 0 -10 10 -19 24
-21 18 -4 28 1 37 19 8 16 9 27 2 34 -6 6 -9 2 -9 -13z"/>
<path d="M5320 440 c0 -29 3 -51 6 -48 7 8 8 88 0 95 -3 4 -6 -18 -6 -47z"/>
<path d="M5650 471 c7 -12 10 -32 7 -42 -3 -10 -1 -17 4 -13 14 8 11 38 -7 60
-14 18 -15 18 -4 -5z"/>
<path d="M5713 440 c0 -30 2 -44 4 -30 3 14 10 28 17 32 8 6 8 8 -1 8 -6 0
-14 10 -16 23 -2 12 -4 -3 -4 -33z"/>
<path d="M6068 465 c-12 -27 2 -75 22 -75 7 0 4 7 -4 16 -19 18 -20 38 -6 65
6 10 8 19 5 19 -3 0 -11 -11 -17 -25z"/>
<path d="M6211 448 c0 -26 3 -49 7 -52 4 -2 6 12 4 32 -6 62 -10 69 -11 20z"/>
<path d="M6280 443 c-3 -29 -1 -48 3 -44 5 5 7 28 5 52 l-3 44 -5 -52z"/>
<path d="M6343 440 c0 -30 2 -44 4 -32 3 17 10 23 23 19 22 -6 49 38 33 54 -6
6 -9 2 -9 -13 1 -16 -5 -24 -21 -26 -17 -3 -22 3 -26 25 -2 15 -4 3 -4 -27z"/>
<path d="M6528 480 c6 -8 12 -26 12 -40 0 -14 -6 -32 -12 -40 -11 -12 -10 -12
5 -1 9 7 17 26 17 41 0 15 -8 34 -17 41 -15 11 -16 11 -5 -1z"/>
<path d="M373 426 c3 -63 13 -77 91 -128 82 -53 96 -51 96 12 0 50 0 50 -50
75 -28 14 -68 41 -89 60 -21 19 -41 35 -44 35 -3 0 -5 -24 -4 -54z"/>
<path d="M2050 471 c0 -6 4 -13 10 -16 6 -3 7 1 4 9 -7 18 -14 21 -14 7z"/>
<path d="M2248 449 c2 -16 -2 -37 -9 -47 -13 -15 -12 -16 4 -3 17 14 24 66 9
75 -5 3 -6 -8 -4 -25z"/>
<path d="M2297 473 c-14 -13 -7 -61 11 -74 15 -13 16 -12 3 3 -7 10 -11 31 -9
48 5 32 5 33 -5 23z"/>
<path d="M5422 469 c3 -8 20 -22 39 -32 19 -10 25 -12 15 -5 -11 7 -28 21 -39
32 -12 11 -18 13 -15 5z"/>
<path d="M5572 455 c0 -16 2 -22 5 -12 2 9 2 23 0 30 -3 6 -5 -1 -5 -18z"/>
<path d="M3603 459 c3 -9 -1 -29 -9 -44 -12 -23 -12 -26 0 -16 19 16 26 46 14
62 -8 11 -9 11 -5 -2z"/>
<path d="M2151 444 c-1 -11 6 -29 15 -40 8 -10 12 -13 9 -6 -4 8 -11 26 -15
40 -7 22 -8 23 -9 6z"/>
<path d="M4122 440 c0 -14 2 -19 5 -12 2 6 2 18 0 25 -3 6 -5 1 -5 -13z"/>
<path d="M6441 444 c-1 -11 6 -29 15 -40 8 -10 12 -13 9 -6 -4 8 -11 26 -15
40 -7 22 -8 23 -9 6z"/>
<path d="M2713 433 c-3 -10 -8 -22 -11 -27 -3 -5 0 -6 5 -3 11 7 25 47 17 47
-3 0 -7 -8 -11 -17z"/>
<path d="M3153 443 c9 -2 23 -2 30 0 6 3 -1 5 -18 5 -16 0 -22 -2 -12 -5z"/>
<path d="M4528 434 c14 -9 21 -22 18 -31 -3 -8 -1 -11 4 -8 16 10 11 34 -9 45
-30 16 -38 12 -13 -6z"/>
<path d="M4637 431 c-4 -17 -3 -21 5 -13 5 5 8 16 6 23 -3 8 -7 3 -11 -10z"/>
<path d="M4788 434 c14 -9 21 -22 18 -31 -3 -8 -1 -11 4 -8 16 10 11 34 -9 45
-30 16 -38 12 -13 -6z"/>
<path d="M4995 438 c11 -6 23 -16 27 -22 5 -8 8 -7 8 1 0 7 -9 17 -19 23 -27
14 -41 12 -16 -2z"/>
<path d="M6626 436 c10 -8 21 -12 24 -10 5 6 -21 24 -34 24 -6 0 -1 -6 10 -14z"/>
<path d="M5905 430 c3 -5 8 -10 11 -10 2 0 4 5 4 10 0 6 -5 10 -11 10 -5 0 -7
-4 -4 -10z"/>
<path d="M6138 433 c7 -3 16 -2 19 1 4 3 -2 6 -13 5 -11 0 -14 -3 -6 -6z"/>
<path d="M2770 425 c0 -5 5 -17 10 -25 5 -8 10 -10 10 -5 0 6 -5 17 -10 25 -5
8 -10 11 -10 5z"/>
<path d="M3910 423 c0 -6 8 -17 18 -24 16 -13 16 -13 2 6 -8 11 -16 22 -17 24
-2 2 -3 0 -3 -6z"/>
<path d="M4695 420 c3 -5 8 -10 11 -10 2 0 4 5 4 10 0 6 -5 10 -11 10 -5 0 -7
-4 -4 -10z"/>
<path d="M5060 423 c0 -6 8 -17 18 -24 16 -13 16 -13 2 6 -8 11 -16 22 -17 24
-2 2 -3 0 -3 -6z"/>
<path d="M2649 403 c-13 -16 -12 -17 4 -4 16 13 21 21 13 21 -2 0 -10 -8 -17
-17z"/>
<path d="M4137 399 c7 -7 15 -10 18 -7 3 3 -2 9 -12 12 -14 6 -15 5 -6 -5z"/>
</g>
</svg>
